<!-- Generated by IcoMoon.io -->
<svg version="1.1" xmlns="http://www.w3.org/2000/svg" width="65" height="32" viewBox="0 0 65 32">
<title>logo</title>
<path fill="#c1bebe" d="M27.777 21.31c0.122-0.050 0.121-0.049 0.119-0.049l-0.124 0.051c-0.276 0.079-0.697 0.176-1.122 0.26l-0.126 0.021c0.073-0.007 0.049-0.004 0.024-0.001l-0.096 0.009c-0.119 0.020-0.344 0.048-0.571 0.073l-0.088 0.008c-0.308 0.052-0.733 0.105-1.162 0.145l-0.078 0.006c-0.42 0.032-0.91 0.050-1.404 0.050h-0c-0.698-0-1.387-0.036-2.066-0.107l0.085 0.007c-0.764-0.078-1.433-0.182-2.090-0.32l0.129 0.023c-0.301-0.070-0.464-0.113-0.627-0.158l0.139 0.033c0.086 0.158 0.122 0.219 0.158 0.28l-0.051-0.093c0.401 0.623 0.781 1.151 1.185 1.658l-0.031-0.040c0.435 0.547 0.863 1.034 1.314 1.499l-0.005-0.005c0.157 0.152 0.322 0.306 0.49 0.458l0.018 0.016c0.141 0.136 0.29 0.276 0.442 0.414l0.017 0.015c0.114 0.11 0.237 0.225 0.362 0.339l0.016 0.014c0.025 0.023 0.060 0.056 0.095 0.089l0.013 0.012c0.465 0.395 0.979 0.791 1.513 1.161l0.066 0.043c0.347 0.238 0.775 0.505 1.214 0.755l0.098 0.051c0.006 0.007 0.094 0.062 0.183 0.116l0.087 0.050c-0.048-0.026-0.012-0.004 0.024 0.018l0.085 0.049c0.18 0.099 0.473 0.244 0.771 0.382l0.123 0.051c0.179 0.099 0.472 0.244 0.769 0.381l0.123 0.051c0.474 0.211 1.091 0.443 1.723 0.644l0.141 0.039c0.491 0.162 1.136 0.332 1.793 0.47l0.129 0.023c0.528 0.115 1.197 0.22 1.876 0.29l0.085 0.007c0.526 0.053 1.141 0.085 1.763 0.089l0.006 0c0.075-0.052 0.091-0.063 0.107-0.075l-0.058 0.040c-0.037 0.002-0.092 0.004-0.147 0.005l-0.010 0c-0.268-0-0.534-0.014-0.795-0.041l0.033 0.003c-0.294-0.030-0.551-0.070-0.804-0.123l0.050 0.009c-0.302-0.061-0.55-0.127-0.793-0.203l0.054 0.015c-0.297-0.092-0.535-0.181-0.766-0.281l0.049 0.019c-0.281-0.119-0.507-0.23-0.726-0.352l0.039 0.020c-0.258-0.141-0.471-0.274-0.676-0.415l0.025 0.017c-0.231-0.159-0.429-0.31-0.619-0.471l0.011 0.009c-0.201-0.17-0.383-0.34-0.557-0.518l-0.002-0.002c-0.172-0.177-0.336-0.363-0.492-0.558l-0.012-0.015c-0.144-0.179-0.29-0.382-0.426-0.591l-0.018-0.030c-0.118-0.18-0.244-0.396-0.36-0.619l-0.020-0.043c0.012 0.031 0.004 0.014-0.003-0.003l-0.019-0.048c-0.086-0.164-0.183-0.377-0.271-0.594l-0.018-0.051c-0.075-0.183-0.157-0.424-0.228-0.67l-0.013-0.054c-0.004-0.007-0.017-0.066-0.030-0.126l-0.009-0.050c0.004 0.025-0.002-0.002-0.008-0.029l-0.010-0.051c-0.031-0.109-0.069-0.274-0.102-0.44l-0.008-0.048c-0.039-0.209-0.071-0.469-0.091-0.733l-0.001-0.025c-0.012-0.161-0.019-0.35-0.019-0.54 0-0 0-0 0-0v0c0-0 0-0 0-0 0-0.268 0.014-0.533 0.041-0.794l-0.003 0.033c0.030-0.294 0.070-0.551 0.123-0.804l-0.009 0.050c0.027-0.119 0.045-0.185 0.063-0.251l-0.013 0.054z"></path>
<path fill="#c1bebe" d="M12.255 9.037c-0.169 0.052-0.252 0.080-0.335 0.109l0.085-0.026c-0.459 0.178-0.826 0.346-1.182 0.531l0.068-0.032c-0.321 0.169-0.571 0.314-0.815 0.468l0.050-0.030c-0.158 0.086-0.254 0.142-0.349 0.2l0.055-0.031c-0.382 0.247-0.706 0.48-1.017 0.729l0.024-0.019c-0.336 0.267-0.635 0.531-0.92 0.808l0.003-0.003c-0.094 0.097-0.189 0.199-0.282 0.303l-0.010 0.011c-0.181 0.183-0.358 0.371-0.528 0.566l-0.012 0.014c-0.105 0.13-0.225 0.286-0.341 0.445l-0.024 0.035c-0.108 0.133-0.231 0.293-0.349 0.457l-0.024 0.035c-0.2 0.288-0.412 0.628-0.606 0.978l-0.032 0.062c-0.060 0.109-0.148 0.287-0.231 0.468l-0.031 0.076c-0.051 0.092-0.13 0.253-0.206 0.416l-0.031 0.075c0.022-0.050 0.011-0.030 0.001-0.009l-0.032 0.072c-0.015 0.029-0.057 0.141-0.097 0.254l-0.027 0.085c0.019-0.060 0.010-0.036 0.001-0.012l-0.027 0.085c0.005-0.032-0.009 0.021-0.023 0.075l-0.018 0.085c0.001-0.016-0.018 0.054-0.035 0.125l-0.018 0.084c0.036 0.36 0.070 0.632 0.109 0.903l-0.013-0.108c0.131 0.744 0.272 1.357 0.441 1.959l-0.034-0.14c0.035 0.175 0.045 0.216 0.054 0.258l-0.027-0.135c0.216 0.782 0.43 1.41 0.673 2.023l-0.047-0.135c0.29 0.748 0.562 1.346 0.862 1.927l-0.052-0.111c0.352 0.692 0.68 1.257 1.034 1.803l-0.047-0.077c0.334 0.509 0.638 0.932 0.959 1.342l-0.033-0.044c0.116 0.167 0.191 0.271 0.267 0.375l-0.038-0.055c0.435 0.547 0.863 1.034 1.314 1.499l-0.005-0.005c0.455 0.47 0.928 0.913 1.422 1.332l0.029 0.024c0.465 0.395 0.979 0.791 1.513 1.161l0.066 0.043c0.044 0.031 0.169 0.109 0.295 0.186l0.088 0.050c0.001 0.040-0.040-0.14-0.080-0.321l-0.040-0.214c-0.109-0.628-0.212-1.454-0.284-2.288l-0.008-0.12c-0.018-0.099-0.051-0.367-0.082-0.636l-0.013-0.146c-0.005-0.11-0.012-0.289-0.017-0.468l-0.001-0.045c-0.011-0.206-0.021-0.488-0.028-0.771l-0.001-0.038c-0.014-0.252-0.026-0.584-0.033-0.917l-0.001-0.035c0.002-1.095 0.058-2.174 0.166-3.238l-0.011 0.136c0.005-0.114 0.007-0.151 0.009-0.188l-0.003 0.081c0.099-0.827 0.202-1.492 0.326-2.15l-0.031 0.2c0.032-0.241 0.042-0.304 0.052-0.367l-0.024 0.183c0.069-0.525 0.124-0.881 0.185-1.234l-0.027 0.191c0.139-0.61 0.241-0.998 0.35-1.383l-0.055 0.227c0.065-0.285 0.081-0.347 0.098-0.409l-0.051 0.224c0.181-0.818 0.337-1.412 0.51-2l-0.057 0.227c0.12-0.355 0.169-0.486 0.219-0.617l-0.074 0.221c-0.154-0.066-0.276-0.126-0.394-0.191l0.024 0.012c-0.155-0.085-0.283-0.164-0.406-0.249l0.015 0.010c-0.138-0.095-0.257-0.186-0.371-0.283l0.007 0.005c-0.121-0.102-0.23-0.204-0.334-0.311l-0.001-0.001c-0.103-0.106-0.202-0.218-0.295-0.335l-0.007-0.009c-0.086-0.108-0.174-0.229-0.255-0.355l-0.011-0.018c-0.071-0.108-0.147-0.238-0.216-0.372l-0.012-0.025c-0.057-0.108-0.12-0.246-0.176-0.387l-0.011-0.031c-0.045-0.11-0.094-0.255-0.136-0.402l-0.008-0.032c-0.034-0.115-0.069-0.266-0.096-0.419l-0.004-0.028c-0.023-0.126-0.043-0.281-0.054-0.439l-0.001-0.015c-0.007-0.097-0.011-0.21-0.011-0.324v0c0-0 0-0 0-0 0-0.161 0.008-0.32 0.025-0.477l-0.002 0.020c0.006-0.047 0.010-0.069 0.013-0.091l-0.004 0.026c0.017-0.155 0.037-0.287 0.064-0.417l-0.005 0.029c0.037-0.181 0.076-0.33 0.122-0.476l-0.009 0.032c0.024-0.072 0.039-0.111 0.054-0.15l-0.011 0.031z"></path>
<path d="M27.777 21.31c0.013-0.057 0.014-0.061 0.015-0.065l-0.012 0.053c-0.033 0.056-0.035 0.060-0.038 0.064l0.030-0.052c0.125-0.052 0.127-0.052 0.128-0.053l-0.124 0.051z"></path>
<path d="M15.947 31.828c0.073 0.245 0.079 0.264 0.086 0.282l-0.067-0.226c0.006 0.001 0.044 0.003 0.081 0.004l0.027 0.001c-0.159-0.072-0.201-0.093-0.243-0.114l0.116 0.052z"></path>
<path fill="#c1bebe" d="M3.448 0.111c-0.026 0.001-0.043 0.002-0.059 0.003l0.011-0c-0.098 0.001-0.194 0.004-0.29 0.011l0.014-0.001c-0.173 0.012-0.329 0.032-0.482 0.059l0.028-0.004c-0.181 0.031-0.331 0.066-0.479 0.108l0.032-0.008c-0.18 0.050-0.324 0.099-0.465 0.155l0.031-0.011c-0.172 0.067-0.31 0.13-0.443 0.199l0.026-0.012c-0.159 0.081-0.289 0.157-0.415 0.239l0.018-0.011c-0.143 0.093-0.265 0.18-0.382 0.273l0.009-0.007c-0.126 0.1-0.238 0.199-0.345 0.303l0.001-0.001c-0.009 0.009-0.019 0.021-0.030 0.032l-0.003 0.003c0.213 0.509 0.35 0.808 0.491 1.105l-0.083-0.195c0.223 0.534 0.371 0.858 0.524 1.18l-0.083-0.194c0.571 1.118 1.102 2.030 1.675 2.912l-0.076-0.125c0.63 0.974 1.224 1.796 1.854 2.588l-0.050-0.065c0.087 0.125 0.108 0.155 0.13 0.185l-0.064-0.093c0.124 0.143 0.215 0.246 0.307 0.349l-0.028-0.031c0.076-0.023 0.12-0.038 0.163-0.054l-0.032 0.010c0.085-0.026 0.137-0.044 0.189-0.062l-0.032 0.010c0.143-0.057 0.252-0.107 0.359-0.161l-0.026 0.012c0.057-0.024 0.085-0.037 0.113-0.050l-0.028 0.012c0.159-0.081 0.289-0.157 0.415-0.239l-0.018 0.011c0.064-0.044 0.112-0.078 0.159-0.114l-0.012 0.009c0.091-0.061 0.165-0.114 0.236-0.169l-0.011 0.008c0.126-0.1 0.238-0.199 0.345-0.303l-0.001 0.001c0.108-0.105 0.21-0.214 0.307-0.328l0.005-0.007c0.091-0.107 0.182-0.226 0.267-0.349l0.010-0.015c0.075-0.108 0.154-0.235 0.227-0.367l0.012-0.023c0.061-0.108 0.128-0.244 0.188-0.383l0.011-0.030c0.049-0.109 0.102-0.252 0.148-0.398l0.009-0.032c0.009-0.027 0.025-0.088 0.040-0.149l0.006-0.031c0 0.003 0.008-0.025 0.015-0.054l0.007-0.032c0.009-0.027 0.025-0.086 0.039-0.146l0.006-0.031c0.026-0.122 0.051-0.276 0.067-0.433l0.002-0.020c0.015-0.137 0.023-0.296 0.023-0.457 0-0 0-0 0-0v0c0-0 0-0.001 0-0.002 0-0.113-0.004-0.226-0.012-0.337l0.001 0.015c-0.012-0.173-0.032-0.329-0.059-0.482l0.004 0.028c-0.031-0.181-0.066-0.331-0.108-0.479l0.008 0.032c-0.023-0.074-0.037-0.115-0.051-0.156l0.010 0.032c-0.040-0.137-0.075-0.241-0.114-0.342l0.011 0.031c-0.067-0.172-0.13-0.31-0.199-0.443l0.012 0.026c-0.081-0.159-0.157-0.289-0.239-0.415l0.011 0.018c-0.073-0.11-0.138-0.201-0.207-0.289l0.008 0.010c-0.031-0.045-0.053-0.076-0.076-0.106l0.009 0.012c-0.1-0.126-0.199-0.238-0.303-0.345l0.001 0.001c-0.105-0.108-0.214-0.21-0.328-0.307l-0.007-0.006c-0.107-0.091-0.226-0.182-0.349-0.267l-0.015-0.010c-0.108-0.075-0.235-0.154-0.367-0.227l-0.023-0.012c-0.108-0.061-0.244-0.128-0.383-0.188l-0.030-0.011c-0.109-0.049-0.252-0.102-0.398-0.148l-0.032-0.009c-0.113-0.037-0.262-0.076-0.414-0.108l-0.030-0.005c-0.122-0.026-0.276-0.051-0.433-0.067l-0.020-0.002c-0.137-0.015-0.296-0.023-0.457-0.023-0 0-0 0-0 0v0zM4.324 1.468c0.054 0 0.107 0.003 0.159 0.008l-0.007-0.001c0.059 0.006 0.11 0.014 0.161 0.024l-0.010-0.002c0.060 0.012 0.11 0.025 0.159 0.041l-0.011-0.003c0.059 0.018 0.107 0.036 0.153 0.056l-0.010-0.004c0.056 0.024 0.101 0.046 0.145 0.070l-0.008-0.004c0.052 0.028 0.094 0.055 0.135 0.083l-0.005-0.003c0.046 0.032 0.086 0.062 0.124 0.094l-0.002-0.002c0.040 0.034 0.077 0.068 0.111 0.104l0 0c0.034 0.035 0.067 0.073 0.098 0.112l0.002 0.003c0.029 0.036 0.058 0.076 0.085 0.118l0.004 0.006c0.024 0.036 0.049 0.079 0.072 0.124l0.004 0.009c0.019 0.036 0.040 0.082 0.059 0.129l0.004 0.010c0.015 0.037 0.031 0.085 0.045 0.134l0.003 0.011c0.011 0.038 0.023 0.089 0.032 0.14l0.001 0.009c0.008 0.042 0.014 0.094 0.018 0.147l0 0.005c0.002 0.032 0.004 0.070 0.004 0.108v0c0 0.054-0.003 0.107-0.008 0.159l0.001-0.007c-0.006 0.059-0.014 0.11-0.025 0.161l0.002-0.010c-0.012 0.061-0.025 0.11-0.041 0.159l0.003-0.011c-0.018 0.059-0.036 0.107-0.056 0.153l0.004-0.010c-0.024 0.056-0.046 0.101-0.070 0.145l0.004-0.008c-0.028 0.052-0.055 0.094-0.083 0.135l0.003-0.005c-0.032 0.046-0.062 0.086-0.094 0.124l0.002-0.002c-0.034 0.040-0.068 0.077-0.104 0.111l-0 0c-0.035 0.034-0.073 0.067-0.112 0.098l-0.003 0.002c-0.036 0.029-0.076 0.058-0.118 0.085l-0.006 0.004c-0.036 0.024-0.079 0.049-0.124 0.072l-0.009 0.004c-0.036 0.019-0.082 0.040-0.129 0.059l-0.010 0.004c-0.037 0.015-0.085 0.031-0.134 0.045l-0.011 0.003c-0.038 0.011-0.089 0.023-0.14 0.032l-0.009 0.001c-0.042 0.008-0.094 0.014-0.147 0.018l-0.005 0c-0.032 0.002-0.070 0.004-0.108 0.004h-0c-0.054-0-0.107-0.003-0.159-0.008l0.007 0.001c-0.059-0.006-0.11-0.014-0.161-0.025l0.010 0.002c-0.061-0.012-0.11-0.025-0.159-0.041l0.011 0.003c-0.059-0.018-0.107-0.036-0.153-0.056l0.010 0.004c-0.056-0.024-0.101-0.046-0.145-0.070l0.008 0.004c-0.052-0.028-0.094-0.055-0.135-0.083l0.005 0.003c-0 0-0 0-0 0s-0 0-0.001 0h0c-0.046-0.031-0.085-0.062-0.123-0.093l0.002 0.002c-0.040-0.034-0.077-0.068-0.111-0.104l-0-0c-0.034-0.035-0.067-0.073-0.098-0.112l-0.002-0.003c-0.029-0.036-0.058-0.076-0.085-0.118l-0.004-0.006c-0.024-0.036-0.049-0.079-0.072-0.124l-0.004-0.009c-0.019-0.036-0.040-0.082-0.059-0.129l-0.004-0.010c-0.015-0.037-0.031-0.085-0.046-0.134l-0.003-0.011c-0.011-0.038-0.023-0.089-0.032-0.14l-0.001-0.009c-0.008-0.042-0.014-0.094-0.018-0.146l-0-0.005c-0.002-0.032-0.004-0.069-0.004-0.107 0-0 0-0.001 0-0.001v0c0-0.054 0.003-0.107 0.008-0.159l-0.001 0.007c0.006-0.059 0.014-0.11 0.025-0.161l-0.002 0.010c0.012-0.060 0.025-0.11 0.041-0.159l-0.003 0.011c0.018-0.059 0.036-0.107 0.056-0.153l-0.004 0.010c0.024-0.056 0.046-0.101 0.070-0.145l-0.004 0.008c0.028-0.052 0.055-0.094 0.083-0.135l-0.003 0.005c0.032-0.046 0.062-0.086 0.094-0.124l-0.002 0.002c0.034-0.040 0.068-0.077 0.104-0.111l0-0c0.015-0.014 0.032-0.029 0.050-0.044l0.002-0.002c0.019-0.018 0.039-0.036 0.060-0.053l0.002-0.002c0.036-0.029 0.076-0.058 0.118-0.085l0.006-0.004c0.036-0.024 0.079-0.049 0.124-0.072l0.009-0.004c0.036-0.019 0.082-0.040 0.129-0.059l0.010-0.004c0.037-0.015 0.085-0.031 0.134-0.045l0.011-0.003c0.038-0.011 0.089-0.023 0.14-0.032l0.009-0.001c0.042-0.008 0.094-0.014 0.147-0.018l0.005-0c0.032-0.002 0.070-0.004 0.108-0.004h0z"></path>
<path fill="#bfbfbf" d="M16.958 1.727c-0.304 0-0.605 0.011-0.904 0.033l0.040-0.002c-0.461 0.033-0.877 0.085-1.285 0.158l0.074-0.011c-0.482 0.083-0.884 0.176-1.277 0.288l0.086-0.021c-0.479 0.133-0.865 0.264-1.241 0.414l0.083-0.029c-0.459 0.178-0.825 0.346-1.182 0.531l0.068-0.032c-0.281 0.149-0.494 0.273-0.702 0.403l0.052-0.030c-0.197 0.107-0.331 0.185-0.462 0.265l0.054-0.031c-0.382 0.247-0.706 0.48-1.017 0.729l0.024-0.019c-0.267 0.217-0.505 0.427-0.733 0.645l0.005-0.005c-0.001-0.013 0-0.002 0.001 0.008l0.002 0.022c0.005 0.078 0.009 0.172 0.009 0.265v0.002c0.001 0.011 0.001 0.031 0.002 0.051l0 0.006c0 0 0 0 0 0 0 0.161-0.008 0.32-0.025 0.477l0.002-0.020c-0.018 0.176-0.042 0.331-0.074 0.482l0.005-0.030c-0.028 0.13-0.054 0.228-0.083 0.325l0.008-0.032c-0.019 0.082-0.032 0.133-0.046 0.183l0.008-0.032c-0.055 0.178-0.108 0.321-0.168 0.46l0.011-0.030c-0.071 0.169-0.138 0.304-0.211 0.436l0.012-0.023c-0.036 0.061-0.060 0.101-0.086 0.14l0.011-0.018c-0.063 0.112-0.118 0.199-0.175 0.285l0.010-0.017c-0.095 0.138-0.186 0.257-0.283 0.371l0.005-0.007c-0.102 0.121-0.204 0.23-0.311 0.334l-0.001 0.001c-0.106 0.103-0.218 0.202-0.335 0.295l-0.009 0.007c-0.085 0.067-0.183 0.137-0.284 0.204l-0.017 0.011c-0.011 0.008-0.034 0.025-0.058 0.042l-0.014 0.010c-0.071 0.046-0.163 0.099-0.258 0.15l-0.025 0.012c-0.017 0.011-0.054 0.033-0.092 0.054l-0.023 0.012c-0.108 0.057-0.246 0.12-0.387 0.176l-0.031 0.011c-0.039 0.016-0.11 0.040-0.182 0.062l-0.032 0.009c-0 0.002-0.033 0.013-0.066 0.023l-0.032 0.009c-0.008 0.004-0.049 0.018-0.090 0.032l-0.032 0.009c-0.006 0.003-0.043 0.011-0.081 0.019l-0.030 0.005c-0.046 0.013-0.125 0.031-0.205 0.047l-0.029 0.005c0.101 0.242 0.153 0.356 0.206 0.47l-0.051-0.122c0.095 0.228 0.141 0.328 0.188 0.429l-0.051-0.122c0.101 0.242 0.153 0.356 0.206 0.47l-0.051-0.122c0.072 0.174 0.094 0.222 0.116 0.269l-0.051-0.123c0.127 0.234 0.205 0.367 0.284 0.5l-0.050-0.091c0.286 0.548 0.536 0.978 0.801 1.398l-0.048-0.082c0.082 0.118 0.123 0.176 0.165 0.233l-0.039-0.056c0.049-0.083 0.068-0.114 0.087-0.144l-0.030 0.051c0.254-0.369 0.496-0.686 0.753-0.99l-0.015 0.018c0.011-0.012 0.016-0.017 0.021-0.022l-0.007 0.007c0.268-0.316 0.535-0.603 0.815-0.876l0.003-0.003c0.282-0.275 0.581-0.538 0.893-0.787l0.024-0.019c0.265-0.211 0.565-0.428 0.876-0.631l0.047-0.029c-0.012 0.008 0.011-0.009 0.034-0.025l0.037-0.025c0.288-0.189 0.634-0.391 0.991-0.575l0.068-0.032c0.289-0.153 0.655-0.32 1.032-0.47l0.083-0.029c0.027-0.013 0.139-0.052 0.253-0.089l0.086-0.024c0.184-0.074 0.456-0.167 0.733-0.25l0.086-0.022c0.053-0.016 0.191-0.048 0.329-0.078l0.080-0.014c-0.065 0.095-0.136 0.209-0.202 0.326l-0.012 0.023c-0.061 0.108-0.128 0.243-0.188 0.383l-0.011 0.030c0.002-0.010-0.006 0.012-0.014 0.033l-0.010 0.032c-0.039 0.088-0.084 0.209-0.124 0.333l-0.009 0.032c-0.037 0.113-0.077 0.262-0.108 0.414l-0.005 0.030c0.003-0.023 0.003-0.022 0.002-0.020l-0.003 0.025c-0.026 0.12-0.050 0.273-0.066 0.428l-0.002 0.020c-0.015 0.137-0.023 0.296-0.023 0.457 0 0 0 0 0 0v0c0 0.114 0.004 0.227 0.012 0.339l-0.001-0.015c0.012 0.173 0.032 0.329 0.059 0.482l-0.004-0.028c0.031 0.181 0.066 0.331 0.108 0.479l-0.008-0.032c0.050 0.18 0.099 0.324 0.155 0.465l-0.011-0.031c0.067 0.172 0.13 0.31 0.199 0.443l-0.012-0.026c0.081 0.159 0.157 0.289 0.239 0.415l-0.011-0.018c0.092 0.143 0.18 0.265 0.273 0.382l-0.007-0.009c0.1 0.126 0.199 0.238 0.303 0.345l-0.001-0.001c0.105 0.108 0.214 0.21 0.328 0.306l0.007 0.006c0.078 0.064 0.166 0.132 0.257 0.196l0.014 0.010c0.020 0.016 0.051 0.040 0.081 0.063l0.012 0.009c0.108 0.075 0.235 0.154 0.367 0.227l0.023 0.012c0.060 0.033 0.147 0.076 0.236 0.116l0.029 0.012c0.022 0.013 0.071 0.037 0.12 0.059l0.028 0.012c0.037 0.017 0.107 0.042 0.177 0.067l0.032 0.010c0.042 0.018 0.115 0.046 0.189 0.071l0.032 0.010c0.113 0.037 0.262 0.076 0.414 0.108l0.030 0.005c0.122 0.026 0.276 0.051 0.433 0.067l0.020 0.002c0.114 0.011 0.247 0.018 0.383 0.019h0.002c0.013 0.001 0.038 0.002 0.063 0.003l0.009 0c0.114-0 0.227-0.004 0.339-0.012l-0.015 0.001c0.173-0.012 0.329-0.032 0.482-0.059l-0.028 0.004c0.181-0.031 0.331-0.066 0.479-0.108l-0.032 0.008c0.18-0.050 0.324-0.099 0.465-0.155l-0.031 0.011c0.172-0.067 0.31-0.13 0.443-0.199l-0.026 0.012c0.109-0.058 0.192-0.106 0.274-0.157l-0.019 0.011c0.009-0.11 0.016-0.246 0.019-0.384l0-0.009c-0.001-0.138-0.006-0.271-0.015-0.403l0.001 0.022c-0.002-0.065-0.004-0.121-0.006-0.176l0.001 0.017c-0.021-0.288-0.053-0.548-0.099-0.804l0.007 0.046c-0.052-0.301-0.11-0.552-0.18-0.798l0.013 0.054c-0.083-0.3-0.165-0.541-0.259-0.776l0.018 0.052c-0.111-0.287-0.216-0.516-0.332-0.739l0.020 0.043c-0.135-0.265-0.262-0.482-0.398-0.691l0.018 0.030c-0.154-0.239-0.3-0.441-0.456-0.636l0.012 0.015c-0.143-0.177-0.282-0.334-0.426-0.485l0.003 0.003c0.024 0.001 0.012 0 0-0l-0.035-0.002c0.088-0.197 0.092-0.205 0.096-0.213l-0.084 0.188c-0.026-0.030-0.045-0.051-0.064-0.072l0.007 0.008c-0.077-0.075-0.158-0.15-0.24-0.224l-0.007-0.007c-0.011-0.011-0.026-0.025-0.041-0.039l-0.005-0.005c-0.083-0.081-0.169-0.161-0.257-0.24l-0.008-0.007c-0.179-0.152-0.377-0.303-0.582-0.445l-0.025-0.017c-0.039-0.026-0.109-0.070-0.179-0.112l-0.035-0.019c-0.111-0.075-0.254-0.164-0.399-0.248l-0.037-0.020c0.038 0.017 0.032 0.013 0.025 0.010l-0.045-0.020c-0.174-0.098-0.393-0.206-0.617-0.303l-0.049-0.019c-0.095-0.041-0.243-0.097-0.394-0.148l-0.054-0.016c-0.037-0.017-0.126-0.050-0.216-0.082l-0.053-0.016c-0.063-0.020-0.18-0.051-0.299-0.079l-0.052-0.010c-0.075-0.024-0.205-0.058-0.337-0.089l-0.052-0.010c-0.203-0.044-0.46-0.084-0.722-0.111l-0.033-0.003c-0.229-0.024-0.494-0.038-0.762-0.038h-0c-0 0-0.001 0-0.001 0-0.189 0-0.377 0.007-0.563 0.021l0.025-0.001c-0.288 0.021-0.548 0.053-0.804 0.099l0.046-0.007c-0.301 0.052-0.553 0.11-0.798 0.18l0.054-0.013c-0.174 0.052-0.293 0.093-0.411 0.136l0.053-0.017c0.002-0.049 0.003-0.070 0.004-0.091l-0.001 0.030c0.048-0.47 0.112-0.882 0.196-1.286l-0.014 0.079c0.053-0.231 0.092-0.379 0.133-0.524l-0.021 0.086c0.137-0.105 0.307-0.228 0.48-0.346l0.042-0.027c0.288-0.189 0.634-0.391 0.991-0.575l0.068-0.032c0.154-0.079 0.383-0.184 0.616-0.282l0.081-0.030c0.11-0.031 0.306-0.077 0.504-0.117l0.079-0.013c0.335-0.062 0.75-0.114 1.172-0.145l0.040-0.002c0.258-0.019 0.56-0.031 0.864-0.031 0 0 0 0 0 0v0c0.429 0 0.854 0.022 1.271 0.065l-0.052-0.004c0.278 0.034 0.493 0.068 0.706 0.107l-0.075-0.011c0.259 0.032 0.456 0.063 0.65 0.098l-0.074-0.011c0.484 0.098 0.881 0.203 1.269 0.326l-0.087-0.024c0.475 0.147 0.855 0.289 1.226 0.449l-0.079-0.030c0.176 0.080 0.276 0.129 0.376 0.18l-0.069-0.032c0.082 0.037 0.092 0.042 0.102 0.046l-0.072-0.032c0.332 0.146 0.582 0.269 0.827 0.4l-0.065-0.032c0.413 0.226 0.753 0.438 1.081 0.665l-0.041-0.027c0.369 0.254 0.686 0.496 0.99 0.753l-0.018-0.015c0.322 0.272 0.613 0.544 0.89 0.829l0.003 0.003c0.275 0.282 0.538 0.581 0.787 0.893l0.019 0.025c0.23 0.287 0.463 0.611 0.681 0.945l0.029 0.047c0.189 0.288 0.391 0.634 0.575 0.991l0.032 0.068c0.011 0.015 0.052 0.105 0.092 0.196l0.031 0.078c0.104 0.2 0.23 0.477 0.346 0.759l0.030 0.081c0.121 0.294 0.252 0.679 0.364 1.072l0.021 0.086c0.091 0.307 0.184 0.709 0.256 1.117l0.011 0.074c-0.005-0.053-0.004-0.045-0.003-0.037l0.006 0.060c-0.005-0.054-0.005-0.049-0.004-0.043l0.006 0.059c0.059 0.322 0.109 0.725 0.14 1.132l0.002 0.041c0.007 0.119 0.012 0.27 0.015 0.422l0 0.011c0.007 0.118 0.012 0.268 0.015 0.419l0 0.011c-0.005 0.136-0.011 0.249-0.018 0.361l0.002-0.036c-0.004 0.323-0.021 0.634-0.048 0.941l0.003-0.047c-0.048 0.47-0.112 0.882-0.196 1.286l0.014-0.079c-0.091 0.439-0.184 0.791-0.291 1.137l0.023-0.087c-0.042 0.023-0.158 0.077-0.276 0.128l-0.079 0.031c-0.294 0.121-0.679 0.252-1.072 0.364l-0.086 0.021c-0.307 0.091-0.709 0.184-1.117 0.257l-0.074 0.011c-0.335 0.062-0.75 0.114-1.172 0.145l-0.040 0.002c-0.127 0.007-0.287 0.013-0.447 0.016l-0.011 0c-1.002-0.215-1.78-0.419-2.546-0.651l0.228 0.059c-0.876-0.285-1.516-0.524-2.145-0.783l0.214 0.078c-0.588-0.197-0.948-0.332-1.305-0.473l0.218 0.076c-0.192-0.087-0.197-0.089-0.202-0.092l0.187 0.084c-0.003 0.007-0.055-0.109-0.107-0.225l-0.050-0.127c-0.196-0.479-0.409-1.107-0.591-1.748l-0.034-0.14c-0.060-0.211-0.141-0.564-0.213-0.92l-0.021-0.128c-0.025-0.001-0.039-0.002-0.053-0.003l0.012 0.001c-0.176-0.018-0.331-0.042-0.482-0.074l0.030 0.005c-0.052-0.012-0.072-0.017-0.091-0.023l0.032 0.007c-0.077 0.237-0.2 0.705-0.312 1.177l-0.044 0.219c-0.030 0.14-0.082 0.473-0.128 0.807l-0.019 0.169c0.001-0.036-0.023 0.114-0.045 0.264l-0.021 0.176c-0.080 0.397-0.173 0.997-0.25 1.603l-0.016 0.159c0.002-0.062 0.001-0.044 0.001-0.027l-0.003 0.077c0.451 0.144 1.138 0.325 1.835 0.482l0.215 0.041c-0.054-0.006 0.118 0.039 0.29 0.083l0.222 0.048c0.090 0.021 0.37 0.064 0.651 0.104l0.171 0.020c0.59 0.121 1.392 0.247 2.204 0.341l0.15 0.014c0.962 0.102 2.079 0.161 3.209 0.161 0 0 0 0 0 0h-0c0 0 0 0 0 0 0.8 0 1.593-0.029 2.379-0.087l-0.105 0.006c0.24-0.026 0.327-0.037 0.413-0.048l-0.161 0.017c0.277-0.030 0.402-0.045 0.527-0.062l-0.162 0.017c0.325-0.035 0.5-0.057 0.674-0.080l-0.164 0.018c0.165-0.24 0.346-0.531 0.515-0.83l0.032-0.061c0.163-0.288 0.341-0.649 0.501-1.020l0.030-0.079c0.013-0.023 0.053-0.131 0.092-0.239l0.027-0.085c-0.001 0.012 0.026-0.061 0.053-0.133l0.027-0.085c0.051-0.116 0.125-0.316 0.195-0.519l0.026-0.086c-0.004 0.026 0.012-0.034 0.027-0.093l0.018-0.084c-0.016 0.072-0.012 0.059-0.009 0.046l0.019-0.085c0.062-0.193 0.136-0.476 0.201-0.764l0.015-0.081c-0.009 0.045 0.002 0.004 0.012-0.036l0.018-0.085c0.070-0.325 0.135-0.737 0.178-1.155l0.004-0.052c0.039-0.365 0.061-0.79 0.061-1.219 0-0 0-0 0-0v0c0-0.304-0.011-0.605-0.033-0.904l0.002 0.040c-0.033-0.461-0.085-0.877-0.158-1.285l0.011 0.074c-0.083-0.482-0.176-0.884-0.288-1.277l0.021 0.086c-0.133-0.479-0.264-0.865-0.414-1.241l0.029 0.083c-0.066-0.156-0.101-0.234-0.137-0.311l0.032 0.075c-0.15-0.376-0.282-0.665-0.425-0.948l0.032 0.070c-0.189-0.364-0.358-0.654-0.538-0.936l0.029 0.049c-0.064-0.116-0.096-0.172-0.13-0.228l0.031 0.057c-0.247-0.382-0.48-0.706-0.729-1.017l0.019 0.024c-0.267-0.336-0.531-0.635-0.808-0.92l0.003 0.003c-0.28-0.288-0.571-0.56-0.875-0.817l-0.018-0.015c-0.286-0.243-0.603-0.485-0.931-0.712l-0.041-0.027c-0.288-0.2-0.628-0.412-0.978-0.606l-0.062-0.032c-0.255-0.143-0.582-0.304-0.917-0.45l-0.079-0.031c0.037 0.015 0.003-0.001-0.031-0.018l-0.073-0.032c0.080 0.026 0.076 0.025 0.072 0.023l-0.084-0.028c-0.287-0.128-0.664-0.268-1.048-0.39l-0.087-0.024c-0.302-0.1-0.699-0.204-1.103-0.288l-0.079-0.014c-0.325-0.070-0.737-0.135-1.155-0.178l-0.052-0.004c-0.074-0.005-0.184-0.011-0.294-0.015l-0.023-0.001c-0.263-0.025-0.577-0.041-0.894-0.045l-0.008-0z"></path>
<path d="M27.252 13.57c-0.007-0.065-0.007-0.070-0.008-0.076l0.006 0.060c-0.037-0.053-0.049-0.070-0.061-0.087l0.025 0.036c-0.018-0.036-0.006-0.014 0.007 0.008l0.031 0.059z"></path>
<path fill="#c1bebe" d="M29.238 17.826c-0.069 0.313-0.129 0.542-0.196 0.767l0.022-0.086c-0.030 0.082-0.030 0.083-0.030 0.084l0.029-0.081c-0.079 0.236-0.135 0.385-0.193 0.533l0.029-0.083c-0.104 0.319-0.19 0.549-0.283 0.776l0.029-0.082c-0.042 0.093-0.052 0.114-0.063 0.134l0.032-0.071c-0.156 0.358-0.291 0.632-0.436 0.901l0.032-0.065c0.3-0.032 0.448-0.051 0.595-0.070l-0.163 0.018c0.238-0.025 0.322-0.036 0.406-0.047l-0.161 0.017c0.258-0.028 0.362-0.041 0.467-0.054l-0.162 0.017c0.386-0.078 0.557-0.118 0.728-0.159l-0.219 0.044c0.958-0.178 1.704-0.351 2.44-0.549l-0.225 0.051c0.353-0.071 0.492-0.103 0.63-0.136l-0.219 0.044c0.669-0.202 1.106-0.35 1.539-0.508l-0.223 0.071c-0.24-0.001-0.475-0.014-0.706-0.036l0.031 0.003c-0.049-0.007-0.055-0.008-0.060-0.008l0.044 0.006c-0.288-0.029-0.54-0.069-0.787-0.12l0.049 0.009c-0.302-0.061-0.551-0.127-0.793-0.203l0.054 0.015c-0.297-0.092-0.535-0.181-0.766-0.281l0.049 0.019c-0.281-0.119-0.507-0.23-0.726-0.352l0.039 0.020c-0.24-0.132-0.435-0.254-0.624-0.384l0.026 0.017c-0.050-0.029-0.067-0.040-0.084-0.051l0.032 0.019c-0.046-0.034-0.073-0.055-0.1-0.076l0.017 0.013c-0.052-0.038-0.084-0.063-0.116-0.088l0.017 0.013z"></path>
<path fill="#c1bebe" d="M34.453 17.416l0.649 0.206-0.048 0.373h-2.067l-0.024-0.887q-0.351 0.475-0.798 0.752-0.441 0.27-0.899 0.27-0.744 0-1.161-0.578-0.411-0.578-0.411-1.606 0-1.124 0.435-2.081 0.435-0.964 1.209-1.51 0.78-0.553 1.715-0.553 0.822 0 1.495 0.289l0.488-0.238h0.322zM31.261 15.739q0 0.662 0.203 1.054 0.208 0.385 0.518 0.385 0.238 0 0.53-0.257t0.524-0.636l0.59-3.617q-0.268-0.218-0.739-0.218-0.441 0-0.816 0.456-0.375 0.45-0.596 1.227-0.214 0.771-0.214 1.606z"></path>
<path fill="#c1bebe" d="M37.657 17.416l0.709 0.154-0.066 0.424h-2.341l0.893-5.46-0.542-0.154 0.066-0.424h2.174zM37.157 9.849q0-0.418 0.268-0.7 0.274-0.283 0.649-0.283 0.381 0 0.643 0.289 0.268 0.283 0.268 0.694 0 0.405-0.262 0.7-0.262 0.289-0.649 0.289-0.381 0-0.649-0.283-0.268-0.289-0.268-0.707z"></path>
<path fill="#c1bebe" d="M46.3 13.337q0-0.623-0.429-0.623-0.208 0-0.494 0.257-0.28 0.257-0.506 0.655-0.22 0.398-0.28 0.752l-0.59 3.617h-1.59l0.607-3.655q0.131-0.745 0.131-1.002 0-0.623-0.441-0.623-0.286 0-0.649 0.43-0.363 0.424-0.578 1.034l-0.631 3.816h-1.584l0.881-5.454-0.53-0.161 0.077-0.424h1.954l-0.018 1.079q0.429-0.63 0.911-0.931 0.482-0.308 1.078-0.308 0.53 0 0.828 0.341 0.304 0.334 0.31 0.931 0.84-1.272 2.013-1.272 0.524 0 0.834 0.36 0.31 0.353 0.31 0.996 0 0.238-0.101 0.848l-0.566 3.418 0.691 0.154-0.077 0.424h-2.299l0.608-3.655q0.131-0.745 0.131-1.002z"></path>
<path fill="#c1bebe" d="M52.583 13.979q0-1.548-0.745-1.548-0.375 0-0.745 0.488-0.363 0.488-0.59 1.311-0.22 0.822-0.22 1.715 0 0.739 0.22 1.143 0.22 0.398 0.566 0.398 0.381 0 0.739-0.475t0.566-1.285 0.208-1.747zM50.933 18.123q-1.013 0-1.62-0.687t-0.608-1.844q0-1.041 0.417-1.914t1.161-1.375q0.751-0.507 1.685-0.507 1.013 0 1.62 0.687t0.608 1.844q0 1.041-0.417 1.914t-1.167 1.381q-0.745 0.501-1.68 0.501z"></path>
<path fill="#c1bebe" d="M63.951 21.718c0 1.956-0.555 3.468-1.664 4.536-1.109 1.055-2.767 1.583-4.975 1.583-0.837 0-1.74-0.116-2.708-0.347-4.054-1.119-8.965-4.631-12.243-7.203l9.276-0.057c-0.955 3.1 3.097 5.763 5.789 5.811 0.892 0 1.604-0.277 2.137-0.83 0.533-0.566 0.799-1.267 0.799-2.104 0-0.502-0.147-0.959-0.44-1.37-0.283-0.425-0.729-0.843-1.337-1.255l-1.077-0.733c-1.207-0.798-2.061-1.628-2.561-2.49-0.5-0.875-0.75-1.853-0.75-2.934 0-3.667 2.050-5.501 6.149-5.501 1.283 0 2.708 0.206 4.273 0.618l-0.701 4.651h-1.077l-0.212-2.123c-0.228-0.335-0.565-0.637-1.011-0.907-0.446-0.283-0.946-0.425-1.501-0.425-0.826 0-1.435 0.219-1.827 0.656-0.381 0.437-0.571 1.010-0.571 1.718 0 0.502 0.158 0.971 0.473 1.409 0.326 0.437 1.033 1.017 2.12 1.737 1.033 0.682 1.772 1.274 2.218 1.776 0.457 0.489 0.805 1.036 1.044 1.641 0.25 0.605 0.375 1.319 0.375 2.142z"></path>
<path fill="#c1bebe" d="M35 19.123h20.84v0.175h-20.84v-0.175z"></path>
</svg>
